<svg width="30" height="30" viewBox="0 0 30 30" fill="none" xmlns="http://www.w3.org/2000/svg">
<path d="M15 30C23.2842 30 30 23.2842 30 15C30 6.71572 23.2842 0 15 0C6.71572 0 0 6.71572 0 15C0 23.2842 6.71572 30 15 30Z" fill="#1977F3"/>
<path d="M20.8386 19.3369L21.5031 15H17.3434V12.186C17.3434 11.0005 17.9234 9.84246 19.7882 9.84246H21.6803V6.151C21.6803 6.151 19.9632 5.85779 18.3221 5.85779C14.8964 5.85779 12.6563 7.93344 12.6563 11.6945V15H8.84668V19.3369H12.6563V29.8185C13.4199 29.9388 14.2025 29.9999 14.9998 29.9999C15.7972 29.9999 16.5798 29.9367 17.3434 29.8185V19.3369H20.8386Z" fill="white"/>
</svg>
